<svg width="24" height="24" viewBox="0 0 24 24" fill="none" xmlns="http://www.w3.org/2000/svg">
<mask id="mask0_590_457" style="mask-type:alpha" maskUnits="userSpaceOnUse" x="0" y="0" width="24" height="24">
<rect width="24" height="24" fill="#D9D9D9"/>
</mask>
<g mask="url(#mask0_590_457)">
<path d="M0.998535 21.2571V8.91429C0.998535 8.48 1.09593 8.06857 1.29072 7.68C1.48551 7.29143 1.75479 6.97143 2.09854 6.72L10.3485 0.548571C10.8298 0.182857 11.3798 0 11.9985 0C12.6173 0 13.1673 0.182857 13.6485 0.548571L21.8985 6.72C22.2423 6.97143 22.5116 7.29143 22.7064 7.68C22.9011 8.06857 22.9985 8.48 22.9985 8.91429V21.2571C22.9985 22.0114 22.7293 22.6571 22.1907 23.1943C21.6522 23.7314 21.0048 24 20.2485 24H16.1235C15.734 24 15.4074 23.8686 15.1439 23.6057C14.8803 23.3429 14.7485 23.0171 14.7485 22.6286V15.7714C14.7485 15.3829 14.6168 15.0571 14.3532 14.7943C14.0897 14.5314 13.7631 14.4 13.3735 14.4H10.6235C10.234 14.4 9.90739 14.5314 9.64385 14.7943C9.38031 15.0571 9.24854 15.3829 9.24854 15.7714V22.6286C9.24854 23.0171 9.11677 23.3429 8.85322 23.6057C8.58968 23.8686 8.26312 24 7.87354 24H3.74854C2.99229 24 2.34489 23.7314 1.80635 23.1943C1.26781 22.6571 0.998535 22.0114 0.998535 21.2571Z" fill="#001838"/>
</g>
</svg>
