<svg width="15" height="16" viewBox="0 0 15 16" fill="none" xmlns="http://www.w3.org/2000/svg">
<path d="M1.0125 14.15C0.7625 14.25 0.53125 14.2219 0.31875 14.0656C0.10625 13.9094 0 13.7 0 13.4375V2.9375C0 2.775 0.046875 2.63125 0.140625 2.50625C0.234375 2.38125 0.3625 2.2875 0.525 2.225L4.5 0.875L9 2.45L12.4875 1.1C12.7375 1 12.9688 1.02813 13.1813 1.18437C13.3938 1.34062 13.5 1.55 13.5 1.8125V8.13125C13.3125 7.84375 13.0906 7.58125 12.8344 7.34375C12.5781 7.10625 12.3 6.9 12 6.725V2.9L9.75 3.7625V6.125C9.4875 6.125 9.23125 6.14687 8.98125 6.19063C8.73125 6.23438 8.4875 6.3 8.25 6.3875V3.7625L5.25 2.7125V12.5188L1.0125 14.15ZM1.5 12.35L3.75 11.4875V2.7125L1.5 3.4625V12.35ZM9.75 12.125C10.175 12.125 10.5281 12 10.8094 11.75C11.0906 11.5 11.2375 11.125 11.25 10.625C11.2625 10.2 11.1219 9.84375 10.8281 9.55625C10.5344 9.26875 10.175 9.125 9.75 9.125C9.325 9.125 8.96875 9.26875 8.68125 9.55625C8.39375 9.84375 8.25 10.2 8.25 10.625C8.25 11.05 8.39375 11.4062 8.68125 11.6938C8.96875 11.9812 9.325 12.125 9.75 12.125ZM9.75 13.625C8.925 13.625 8.21875 13.3313 7.63125 12.7437C7.04375 12.1562 6.75 11.45 6.75 10.625C6.75 9.8 7.04375 9.09375 7.63125 8.50625C8.21875 7.91875 8.925 7.625 9.75 7.625C10.575 7.625 11.2812 7.91875 11.8687 8.50625C12.4563 9.09375 12.75 9.8 12.75 10.625C12.75 10.9125 12.7156 11.1844 12.6469 11.4406C12.5781 11.6969 12.475 11.9375 12.3375 12.1625L14.25 14.075L13.2 15.125L11.2875 13.2125C11.0625 13.35 10.8219 13.4531 10.5656 13.5219C10.3094 13.5906 10.0375 13.625 9.75 13.625Z" fill="#0084FF"/>
</svg>
