<svg width="24" height="24" viewBox="0 0 24 24" fill="none" xmlns="http://www.w3.org/2000/svg">
<mask id="mask0_1_4618" style="mask-type:alpha" maskUnits="userSpaceOnUse" x="0" y="0" width="24" height="24">
<rect width="24" height="24" fill="#D9D9D9"/>
</mask>
<g mask="url(#mask0_1_4618)">
<path d="M12 22C9.68333 21.4167 7.77083 20.0875 6.2625 18.0125C4.75417 15.9375 4 13.6333 4 11.1V5L12 2L20 5V11.1C20 13.6333 19.2458 15.9375 17.7375 18.0125C16.2292 20.0875 14.3167 21.4167 12 22ZM12 17C12.2833 17 12.5292 16.8958 12.7375 16.6875C12.9458 16.4792 13.05 16.2333 13.05 15.95C13.05 15.6667 12.9458 15.4208 12.7375 15.2125C12.5292 15.0042 12.2833 14.9 12 14.9C11.7167 14.9 11.4708 15.0042 11.2625 15.2125C11.0542 15.4208 10.95 15.6667 10.95 15.95C10.95 16.2333 11.0542 16.4792 11.2625 16.6875C11.4708 16.8958 11.7167 17 12 17ZM12.025 13.9C12.225 13.9 12.4042 13.825 12.5625 13.675C12.7208 13.525 12.8 13.35 12.8 13.15C12.8167 13.0333 12.8417 12.9208 12.875 12.8125C12.9083 12.7042 12.9583 12.6 13.025 12.5C13.1417 12.3333 13.2708 12.1833 13.4125 12.05C13.5542 11.9167 13.6917 11.7833 13.825 11.65C14.1083 11.3667 14.3542 11.05 14.5625 10.7C14.7708 10.35 14.875 9.96667 14.875 9.55C14.875 8.8 14.5875 8.1875 14.0125 7.7125C13.4375 7.2375 12.7667 7 12 7C11.4667 7 10.975 7.125 10.525 7.375C10.075 7.625 9.71667 7.975 9.45 8.425C9.35 8.60833 9.3375 8.79167 9.4125 8.975C9.4875 9.15833 9.625 9.29167 9.825 9.375C10.0083 9.45833 10.1917 9.45417 10.375 9.3625C10.5583 9.27083 10.7167 9.15 10.85 9C11 8.81667 11.1708 8.67917 11.3625 8.5875C11.5542 8.49583 11.7667 8.45 12 8.45C12.3667 8.45 12.6875 8.55833 12.9625 8.775C13.2375 8.99167 13.375 9.26667 13.375 9.6C13.375 9.88333 13.2875 10.1458 13.1125 10.3875C12.9375 10.6292 12.7417 10.85 12.525 11.05C12.3417 11.2333 12.1583 11.4125 11.975 11.5875C11.7917 11.7625 11.6333 11.9583 11.5 12.175C11.4167 12.3083 11.3583 12.4583 11.325 12.625C11.2917 12.7917 11.275 12.9583 11.275 13.125C11.275 13.3417 11.3458 13.525 11.4875 13.675C11.6292 13.825 11.8083 13.9 12.025 13.9Z" fill="black"/>
</g>
</svg>
